<?xml version="1.0" encoding="UTF-8"?>
<svg id="Laag_1" data-name="Laag 1" xmlns="http://www.w3.org/2000/svg" viewBox="0 0 839.77 119.87">
  <defs>
    <style>
      .cls-1 {
        fill: #fff;
        stroke-width: 0px;
      }
    </style>
  </defs>
  <g>
    <g>
      <path class="cls-1" d="M202.53,45.01c-2.62,0-5.17-.34-7.59-.98v74.14h15.38V43.97c-2.48.68-5.1,1.04-7.79,1.04Z"/>
      <path class="cls-1" d="M271.04,42.63c-8.9,0-17.13,3.65-22.12,9.71v-8.49h-15.37v74.32h15.37v-41.55c0-13.62,7.42-20.63,18.75-20.63s18.61,7.01,18.61,20.63v41.55h15.25v-43.84c0-20.77-13.09-31.7-30.49-31.7Z"/>
      <path class="cls-1" d="M339.02,56.43v-.03h18.07v-12.55h-18.07v-25.49h-15.51v25.49h-8.77v12.55h8.77v41.13c0,15.11,8.23,20.64,21.44,20.64h12.14v-12.81h-9.44c-6.47,0-8.63-2.3-8.63-7.83v-34.8h-6.71v-6.3h6.71Z"/>
      <path class="cls-1" d="M396.15,42.64c-13.22,0-21.44,5.53-21.44,20.64v54.95h15.51v-54.95c0-5.53,2.16-7.83,8.63-7.83h12.54v-12.81h-15.24Z"/>
      <path class="cls-1" d="M478.07,43.85v10.79c-4.58-6.07-13.22-12.01-25.76-12.01-19.56,0-35.07,15.11-35.07,38.04s15.51,38.71,34.8,38.71c12.41,0,21.31-5.93,26.03-12.27v11.06h15.51V43.85h-15.51ZM455.55,106.03c-11.47,0-22.53-9.31-22.53-25.36s11.06-24.68,22.53-24.68,22.52,9.03,22.52,24.95-10.92,25.09-22.52,25.09Z"/>
      <path class="cls-1" d="M603.78,42.63c-10.79,0-21.32,5.67-25.9,14.71-5.13-9.72-14.97-14.71-26.71-14.71-8.9,0-16.99,3.65-21.98,9.71v-8.49h-15.38v74.32h15.38v-41.55c0-13.62,7.42-20.63,18.74-20.63s18.62,7.01,18.62,20.63v41.55h15.24v-41.55c0-13.62,7.42-20.63,18.75-20.63s18.61,7.01,18.61,20.63v41.55h15.24v-43.84c0-20.77-13.22-31.7-30.61-31.7Z"/>
      <path class="cls-1" d="M719.53,86.72c.41-2.55.54-4.98.54-7.53,0-21.85-14.97-36.55-36.15-36.55s-37.09,14.97-37.09,38.3,15.78,38.44,37.09,38.44c18.21,0,29.95-10.38,34.13-23.33h-16.59c-2.83,5.8-8.1,10.39-17.54,10.39s-16.78-4.94-19.83-13.43h-7.19v-6.29h62.63ZM683.25,55.59c11.46,0,20.5,7.28,20.77,18.75h-41.14c1.62-11.74,9.98-18.75,20.37-18.75Z"/>
      <path class="cls-1" d="M832,29.22c1.57-.29,2.53-1.38,2.53-3,0-1.91-1.34-3.1-3.43-3.1h-4.44v10.24h2.05v-4.04h1.1l2.62,4.04,2.43-.04-2.86-4.1ZM828.71,27.6v-2.62h2.24c.86,0,1.53.38,1.53,1.29s-.67,1.33-1.53,1.33h-2.24ZM832,29.22c1.57-.29,2.53-1.38,2.53-3,0-1.91-1.34-3.1-3.43-3.1h-4.44v10.24h2.05v-4.04h1.1l2.62,4.04,2.43-.04-2.86-4.1ZM828.71,27.6v-2.62h2.24c.86,0,1.53.38,1.53,1.29s-.67,1.33-1.53,1.33h-2.24ZM832,29.22c1.57-.29,2.53-1.38,2.53-3,0-1.91-1.34-3.1-3.43-3.1h-4.44v10.24h2.05v-4.04h1.1l2.62,4.04,2.43-.04-2.86-4.1ZM828.71,27.6v-2.62h2.24c.86,0,1.53.38,1.53,1.29s-.67,1.33-1.53,1.33h-2.24ZM832,29.22c1.57-.29,2.53-1.38,2.53-3,0-1.91-1.34-3.1-3.43-3.1h-4.44v10.24h2.05v-4.04h1.1l2.62,4.04,2.43-.04-2.86-4.1ZM828.71,27.6v-2.62h2.24c.86,0,1.53.38,1.53,1.29s-.67,1.33-1.53,1.33h-2.24ZM830.38,18.74c-5.53,0-9.43,4.09-9.43,9.57s3.9,9.53,9.43,9.53,9.39-4.05,9.39-9.53-3.91-9.57-9.39-9.57ZM830.38,36.27c-4.67,0-7.72-3.33-7.72-7.96s3.05-7.95,7.72-7.95,7.67,3.33,7.67,7.95-3.05,7.96-7.67,7.96ZM834.53,26.22c0-1.91-1.34-3.1-3.43-3.1h-4.44v10.24h2.05v-4.04h1.1l2.62,4.04,2.43-.04-2.86-4.1c1.57-.29,2.53-1.38,2.53-3ZM828.71,27.6v-2.62h2.24c.86,0,1.53.38,1.53,1.29s-.67,1.33-1.53,1.33h-2.24ZM832,29.22c1.57-.29,2.53-1.38,2.53-3,0-1.91-1.34-3.1-3.43-3.1h-4.44v10.24h2.05v-4.04h1.1l2.62,4.04,2.43-.04-2.86-4.1ZM828.71,27.6v-2.62h2.24c.86,0,1.53.38,1.53,1.29s-.67,1.33-1.53,1.33h-2.24ZM832,29.22c1.57-.29,2.53-1.38,2.53-3,0-1.91-1.34-3.1-3.43-3.1h-4.44v10.24h2.05v-4.04h1.1l2.62,4.04,2.43-.04-2.86-4.1ZM828.71,27.6v-2.62h2.24c.86,0,1.53.38,1.53,1.29s-.67,1.33-1.53,1.33h-2.24Z"/>
      <path class="cls-1" d="M794.15,18.36v31.57c-6.49-4.88-14.57-7.79-23.33-7.79-21.46,0-38.86,17.4-38.86,38.88s17.4,38.85,38.86,38.85,38.57-17.1,38.85-38.32V18.36h-15.52ZM770.82,105.44c-13.52,0-24.5-10.97-24.5-24.5s10.98-24.51,24.5-24.51,24.52,10.97,24.52,24.51-10.99,24.5-24.52,24.5Z"/>
    </g>
    <path class="cls-1" d="M200.53,31.12c-4.04-.76-7.32-4-8.09-8.05-1.39-7.25,4.91-13.51,12.13-12.1,4.02.78,7.24,4.04,8.01,8.06,1.38,7.22-4.81,13.45-12.06,12.08Z"/>
  </g>
  <g>
    <path class="cls-1" d="M106.12,84.65l10.15,10.16-13.45,13.45c-6.6,6.6-15.35,9.91-24.11,9.91s-17.04-3.14-23.59-9.43l-25.08-24.08c4.45-2.11,8-5.8,9.94-10.35l25.08,24.08c7.69,7.38,20.07,7.25,27.61-.28l13.45-13.46Z"/>
    <path class="cls-1" d="M158.26,39c0,10.41-4.06,20.21-11.42,27.57-12.58,12.58-33.04,12.58-45.62,0L56.21,21.56c-4.64-4.64-10.83-7.2-17.42-7.2s-13.13,2.7-17.83,7.61c-6.47,6.78-8.18,16.57-5.24,25.14-4.97,1.46-9.15,4.79-11.71,9.17C-2.98,41.86-.85,24.02,10.59,12.05,18.02,4.28,28.03,0,38.79,0s20.22,4.05,27.58,11.41l45.01,45.01c3.38,3.38,7.87,5.24,12.65,5.24s9.27-1.86,12.65-5.24c4.66-4.65,7.22-10.84,7.22-17.42s-2.56-12.79-7.21-17.43c-9.61-9.61-25.24-9.61-34.86,0l-4.93,4.94-10.17-10.14,4.95-4.95c15.22-15.21,39.96-15.21,55.16-.01,7.36,7.36,11.42,17.15,11.42,27.59Z"/>
    <path class="cls-1" d="M32.71,66.44c0,.29-.01.58-.03.86-.41,5.39-4.61,9.74-9.94,10.36-.43.05-.87.08-1.32.08-6.23,0-11.3-5.07-11.3-11.3,0-.34.01-.67.05-1,.47-5.39,4.74-9.71,10.12-10.24.37-.04.75-.06,1.13-.06,6.23,0,11.29,5.07,11.29,11.3Z"/>
  </g>
</svg>